<svg width="1110" height="704" viewBox="0 0 1110 704" fill="none" xmlns="http://www.w3.org/2000/svg">
<path d="M160.1 413.261C119.18 471.162 83.43 558.425 51.0093 628.327C81.6299 630.778 116.931 629.099 138.975 624.017C182.659 613.944 228.99 625.018 273.236 625.018C333.869 625.018 396.472 628.598 456.788 635.03C628.294 653.319 799.604 673.695 971.298 689.096C1009.63 692.534 1047.16 699.752 1085.37 693.601C1108.32 689.908 1105.35 693.88 1089.6 677.081C1062.38 648.056 1034.39 620.207 1006.98 590.977L1005.6 589.508C956.807 537.48 906.815 484.171 868.959 422.272C836.371 368.986 807.714 301.827 766.62 255.57C721.088 204.318 678.421 146.241 629.074 98.8804C598.105 69.1581 564.017 45.5701 531.899 17.7821C509.684 -1.43792 511.094 10.2944 497.16 30.2973C466.882 73.7619 426.863 109.912 391.535 148.44C355.416 187.833 323.772 231.454 282.624 265.582C259.142 285.059 240.775 314.741 220.188 337.67C199.495 360.718 178.147 387.724 160.1 413.261Z" fill="black"/>
<path d="M37.7283 656.241C73.6286 583.154 113.514 479.18 160.1 413.261C178.147 387.724 199.495 360.718 220.188 337.67C240.775 314.741 259.142 285.059 282.624 265.582C323.772 231.454 355.416 187.833 391.535 148.44C426.863 109.912 466.882 73.7619 497.16 30.2973C511.094 10.2944 509.684 -1.43792 531.899 17.7821C564.017 45.5701 598.105 69.1581 629.074 98.8804C678.421 146.241 721.088 204.318 766.62 255.57C807.714 301.827 836.371 368.986 868.959 422.272C907.171 484.753 957.749 538.482 1006.98 590.977C1034.39 620.207 1062.38 648.056 1089.6 677.081C1105.35 693.88 1108.32 689.908 1085.37 693.601C1047.16 699.752 1009.63 692.534 971.298 689.096C799.604 673.695 628.294 653.319 456.788 635.03C396.472 628.598 333.869 625.018 273.236 625.018C228.99 625.018 182.659 613.944 138.975 624.017C104.911 631.871 39.186 631.598 8 620.512" stroke="#56AE59" stroke-width="15" stroke-linecap="round"/>
<path d="M656.394 286.488C655.291 283.238 653.973 282.382 651.915 281.57C647.415 279.902 639.792 282.425 639.792 282.425C639.792 282.425 369.928 379.413 354.511 390.147C351.191 392.456 350.079 393.824 349.527 395.407C346.862 403.019 355.165 406.397 355.165 406.397L424.722 429.062C424.722 429.062 427.315 429.447 428.239 428.848C444.062 418.841 587.441 328.353 595.71 325.317C597.014 324.932 597.981 325.36 597.724 326.258C594.413 337.89 469.883 448.519 469.883 448.519C469.883 448.519 469.408 449.118 469.109 449.802L468.946 449.717L462.457 518.694C462.457 518.694 459.736 539.82 480.872 518.694C495.785 503.77 510.214 491.283 517.435 485.253C541.352 501.76 567.091 520.02 578.201 529.556C583.779 534.346 588.446 535.116 592.287 534.987C602.832 534.602 605.775 523.013 605.775 523.013C605.775 523.013 654.953 325.146 656.595 298.633C656.758 296.024 656.98 294.399 656.997 292.603C657.027 290.123 656.796 287.642 656.394 286.488Z" fill="#56AE59"/>
</svg>
